<?xml version="1.0" encoding="utf-8"?>
<!-- Generator: Adobe Illustrator 25.0.1, SVG Export Plug-In . SVG Version: 6.00 Build 0)  -->
<svg version="1.0" id="Capa_1" xmlns="http://www.w3.org/2000/svg" xmlns:xlink="http://www.w3.org/1999/xlink" x="0px" y="0px"
	 viewBox="0 0 322.2000122 89.2799988" style="enable-background:new 0 0 322.2000122 89.2799988;" xml:space="preserve">
<style type="text/css">
	.st0{fill:#003151;}
	.st1{fill:#F7AB00;}
</style>
<g>
	<path class="st0" d="M61.0478897,68.1540604l6.8730164-15.5169983l6.8599854,15.5069885L61.0478897,68.1540604z
		 M41.89991,86.4150467h11.144989l3.946991-9.0559998h21.8439941l3.9530029,9.0559998h11.1520081l-26.019989-55.071991
		L41.89991,86.4150467z"/>
	<polygon class="st0" points="319.9506836,41.9033279 319.9506836,31.3453445 283.8566284,31.3453445 283.8566284,86.4153519 
		319.9506836,86.4153519 319.9506836,75.6363297 295.6946411,75.6363297 295.6946411,63.3033524 315.9546509,63.3033524 
		315.9546509,52.7453384 295.6946411,52.7453384 295.6946411,41.9033279 	"/>
	<polygon class="st0" points="256.0483093,31.3452225 244.2042999,31.3452225 244.2042999,75.6362381 244.2042999,86.4152298 
		256.0483093,86.4152298 278.8602905,86.4152298 278.8602905,75.6362381 256.0483093,75.6362381 	"/>
	<polygon class="st0" points="216.397934,31.3452225 204.5579071,31.3452225 204.5579071,75.6362381 204.5579071,86.4152298 
		216.397934,86.4152298 239.2119293,86.4152298 239.2119293,75.6362381 216.397934,75.6362381 	"/>
	<polygon class="st0" points="14.0903111,31.34272 2.2493072,31.34272 2.2493072,75.6357193 2.2493072,86.4147415 
		14.0903111,86.4147415 36.9052811,86.4147415 36.9052811,75.6357193 14.0903111,75.6357193 	"/>
	<g>
		<path class="st0" d="M128.999527,53.1196365c-7.1250076-1.5949707-10.4060135-2.2509766-10.4060135-6.7519836
			s4.96698-5.4349976,8.3450012-5.4349976c3.3729935,0,8.2500076,0.4679871,12.8419876,4.4039917l5.625-8.9069824
			c0,0-5.9059753-5.7140198-18.2789993-5.7140198c-12.3769836,0-19.7810059,7.4039917-19.7810059,16.9660034
			c0,9.4670105,6.8880005,13.8300171,18.5599976,16.1239929c9.774025,1.9219971,10.2210159,4.0320129,10.2210159,7.3110046
			c0,3.2839966-5.1560059,5.571991-10.4039993,5.5750122c-6.5670166,0.0050049-13.5039978-6.3240051-13.5039978-6.3240051
			l-6.3770142,9.0939941c0,0,7.0350037,7.5050049,20.4389954,7.5050049c13.4070206,0,20.9060135-6.2860107,20.9060135-18.1000061
			C147.1865082,57.0556412,136.1265106,54.7136612,128.999527,53.1196365"/>
	</g>
	<polygon class="st1" points="173.5464325,31.34272 168.5624237,41.7397232 170.7694244,53.3317337 182.4854279,54.8137283 
		172.132431,60.5037308 174.3454132,72.1127396 165.730423,64.0247269 155.4114227,69.7347183 147.5234222,86.4147415 
		158.6654205,86.4147415 162.5854034,77.3587418 184.5254059,77.3587418 188.4134064,86.4147415 199.5624237,86.4147415 	"/>
	<g>
		<path class="st0" d="M15.8101139,13.0713263c0,3.454011-2.8050079,6.487031-6.7810059,6.487031
			c-3.9649968,0-6.7680058-3.03302-6.7660069-6.487031V2.5413275h2.0960083v10.2820129
			c0,2.6350098,2.076004,4.7130136,4.6699986,4.7130136c2.6049957,0,4.6849976-2.0780039,4.6869965-4.7130136V2.5413275h2.0940094
			V13.0713263z"/>
	</g>
	<polygon class="st0" points="32.0210037,2.5410223 34.0849991,2.5410223 34.0849991,19.3380508 31.7320042,19.3380508 
		22.8039951,5.8040228 22.8039951,19.3420486 20.7419987,19.3420486 20.7419987,2.5390387 23.0969944,2.5390387 
		32.0210037,16.0550308 	"/>
	<rect x="39.1968155" y="2.5410223" class="st0" width="2.0639954" height="16.8009949"/>
	<polygon class="st0" points="51.8452225,19.3423233 44.9682083,2.5413275 47.0972061,2.5413275 52.9742203,16.6033401 
		58.8492203,2.5413275 60.9932022,2.5413275 54.1162186,19.3423233 	"/>
	<polygon class="st0" points="66.5327225,4.4673223 66.5327225,9.7043524 74.2557144,9.7043524 74.2557144,11.6313238 
		66.5327225,11.6313238 66.5327225,17.4163284 74.5307083,17.4163284 74.5307083,19.3423233 64.4697037,19.3423233 
		64.4697037,2.5413275 74.3917007,2.5413275 74.3917007,4.4673223 	"/>
	<g>
		<path class="st0" d="M80.5226822,10.1833258h3.7390137c1.9039917,0,3.1300049-1.1529846,3.1300049-2.822998
			c0-1.6829834-1.3789978-2.8209839-3.1170044-2.8209839h-3.7520142V10.1833258z M84.3237076,2.5273199
			c3.2249756,0,5.1389771,1.9670105,5.1389771,4.8330078c0,2.5150146-1.526001,4.3160095-4.0299988,4.7189941l4.7109985,7.2630014
			h-2.4199829l-4.6170044-7.1469736h-2.5970154v7.1469736h-2.0469971V2.5273199H84.3237076z"/>
		<path class="st0" d="M97.8960037,11.3506231c-2.3300171-0.6689758-4.2340088-2.0069885-4.2340088-4.4169922
			c0-3.0369873,2.3959961-4.644989,4.9549866-4.6199951c1.4670105,0.0169983,2.980011,0.5419922,4.0820007,1.6149902
			l-1.2659912,1.4040222c-0.821991-0.7409973-1.8649902-1.0810242-2.8160095-1.0410156
			c-1.5039978,0.0460205-2.8259888,0.9680176-2.8259888,2.5740051c0,1.4190063,1.0029907,2.2269897,2.9369812,2.8129883
			l1.2480164,0.3950195c2.1600037,0.6799927,3.8299866,2.1560059,3.8299866,4.7659912
			c0,2.9440012-2.46698,4.6810007-5.2539978,4.7049875c-1.802002,0.0130005-3.71698-0.6739807-5.1329956-2.1549988
			l1.2659912-1.4729929c1.1350098,1.2210093,2.5650024,1.7099924,3.8440247,1.6610117
			c1.7669983-0.052002,3.2579956-1.125,3.2579956-2.7370005c0-1.6380005-1.0200195-2.4900208-2.7250061-3.0800171
			L97.8960037,11.3506231z"/>
	</g>
	<rect x="107.8128128" y="2.5410223" class="st0" width="2.0639954" height="16.8009949"/>
	<g>
		<path class="st0" d="M117.052681,17.3270645h3.9820251c3.6579895,0,6.5779724-2.8980112,6.5779724-6.3850107
			s-2.9199829-6.3840027-6.5779724-6.3840027h-3.9820251V17.3270645z M121.0347061,2.5400457
			c4.7559814,0,8.6579971,3.7790222,8.6579971,8.4020081c0,4.6230164-3.9020157,8.3999949-8.6579971,8.3999949h-6.0470276V2.5400457
			H121.0347061z"/>
	</g>
	<path class="st0" d="M142.0540924,12.4973516l-3.0529785-7.4670105l-3.0660095,7.4670105H142.0540924z M144.8901215,19.3423233
		l-2.0160217-4.7809763h-7.7590027l-2.0159912,4.7809763h-2.1799927l6.9499817-16.8009949h2.2510071l6.9500122,16.8009949
		H144.8901215z"/>
	<g>
		<path class="st0" d="M152.8202057,17.3270645h3.9820251c3.6579895,0,6.5779724-2.8980112,6.5779724-6.3850107
			s-2.9199829-6.3840027-6.5779724-6.3840027h-3.9820251V17.3270645z M156.8022308,2.5400457
			c4.7559814,0,8.6579895,3.7790222,8.6579895,8.4020081c0,4.6230164-3.9020081,8.3999949-8.6579895,8.3999949h-6.0470276V2.5400457
			H156.8022308z"/>
		<path class="st0" d="M178.03508,17.3270645h3.9820251c3.6579895,0,6.5779724-2.8980112,6.5779724-6.3850107
			s-2.9199829-6.3840027-6.5779724-6.3840027H178.03508V17.3270645z M182.0171051,2.5400457
			c4.7559814,0,8.6579895,3.7790222,8.6579895,8.4020081c0,4.6230164-3.9020081,8.3999949-8.6579895,8.3999949h-6.0450134V2.5400457
			H182.0171051z"/>
	</g>
	<polygon class="st0" points="196.2280121,4.4673223 196.2280121,9.7043524 203.9489899,9.7043524 203.9489899,11.6313238 
		196.2280121,11.6313238 196.2280121,17.4163284 204.2239838,17.4163284 204.2239838,19.3423233 194.1639862,19.3423233 
		194.1639862,2.5413275 204.0869904,2.5413275 204.0869904,4.4673223 	"/>
</g>
</svg>
